<mxfile host="app.diagrams.net" modified="2024-07-03T09:57:53.637Z" agent="Mozilla/5.0 (Windows NT 10.0; Win64; x64) AppleWebKit/537.36 (KHTML, like Gecko) Chrome/126.0.0.0 Safari/537.36" etag="8TV_L4-NtJ5znIq_qoIT" version="24.6.4" type="device">
  <diagram name="Page-1" id="PlPzejq3QvlF5CCkNT4q">
    <mxGraphModel dx="3272" dy="3217" grid="1" gridSize="10" guides="1" tooltips="1" connect="1" arrows="1" fold="1" page="1" pageScale="1" pageWidth="850" pageHeight="1100" math="0" shadow="0">
      <root>
        <mxCell id="0" />
        <mxCell id="1" parent="0" />
        <mxCell id="nB1WcAFH_xLAjatS7PFR-2" value=" BookedRoom " style="swimlane;whiteSpace=wrap;html=1;startSize=10;align=center;" parent="1" vertex="1">
          <mxGeometry x="515" y="-1590" width="440" height="490" as="geometry" />
        </mxCell>
        <mxCell id="nB1WcAFH_xLAjatS7PFR-31" value="&lt;div&gt;bookingId: Long&lt;/div&gt;&lt;div&gt;checkInDate: LocalDate&lt;/div&gt;&lt;div&gt;checkOutDate: LocalDate&lt;/div&gt;&lt;div&gt;guestFullName: String&lt;/div&gt;&lt;div&gt;guestEmail: String&lt;/div&gt;&lt;div&gt;numOfAdults: int&lt;/div&gt;&lt;div&gt;numOfChildren: int&lt;/div&gt;&lt;div&gt;totalNumOfGuest: int&lt;/div&gt;&lt;div&gt;bookingConfirmationCode: String&lt;/div&gt;&lt;div&gt;room: Room&lt;/div&gt;&lt;div&gt;calculateTotalNumberOfGuest(): void&lt;/div&gt;&lt;div&gt;setNumOfAdults(numOfAdults: int): void&lt;/div&gt;&lt;div&gt;setNumOfChildren(numOfChildren: int): void&lt;/div&gt;&lt;div&gt;setBookingConfirmationCode(bookingConfirmationCode: String): void&lt;/div&gt;&lt;div&gt;setRoom(room: Room): void&lt;/div&gt;&lt;div&gt;getBookingId(): Long&lt;/div&gt;&lt;div&gt;getCheckInDate(): LocalDate&lt;/div&gt;&lt;div&gt;getCheckOutDate(): LocalDate&lt;/div&gt;&lt;div&gt;getGuestFullName(): String&lt;/div&gt;&lt;div&gt;getGuestEmail(): String&lt;/div&gt;&lt;div&gt;getNumOfAdults(): int&lt;/div&gt;&lt;div&gt;getNumOfChildren(): int&lt;/div&gt;&lt;div&gt;getTotalNumOfGuest(): int&lt;/div&gt;&lt;div&gt;getBookingConfirmationCode(): String&lt;/div&gt;&lt;div&gt;getRoom(): Room&lt;/div&gt;&lt;div&gt;equals(o: Object): boolean&lt;/div&gt;&lt;div&gt;hashCode(): int&lt;/div&gt;&lt;div&gt;toString(): String&lt;/div&gt;" style="text;html=1;align=left;verticalAlign=middle;resizable=0;points=[];autosize=1;strokeColor=none;fillColor=none;" parent="nB1WcAFH_xLAjatS7PFR-2" vertex="1">
          <mxGeometry x="10" y="20" width="390" height="420" as="geometry" />
        </mxCell>
        <mxCell id="nB1WcAFH_xLAjatS7PFR-3" value=" UserService " style="swimlane;whiteSpace=wrap;html=1;startSize=10;" parent="1" vertex="1">
          <mxGeometry x="-830" y="-690" width="330" height="200" as="geometry" />
        </mxCell>
        <mxCell id="UZLP8aCEG_kcpRomXIV5-12" value="&lt;div&gt;userRepository: UserRepository&amp;nbsp; &amp;nbsp; &amp;nbsp; &amp;nbsp; &amp;nbsp; &amp;nbsp; &amp;nbsp; &amp;nbsp; &amp;nbsp; &amp;nbsp; &amp;nbsp; &amp;nbsp; &amp;nbsp; &amp;nbsp;&amp;nbsp;&lt;/div&gt;&lt;div&gt;passwordEncoder: PasswordEncoder&amp;nbsp; &amp;nbsp; &amp;nbsp; &amp;nbsp; &amp;nbsp; &amp;nbsp; &amp;nbsp; &amp;nbsp; &amp;nbsp; &amp;nbsp; &amp;nbsp; &amp;nbsp; &amp;nbsp;&amp;nbsp;&lt;/div&gt;&lt;div&gt;roleRepository: RoleRepository&amp;nbsp; &amp;nbsp; &amp;nbsp; &amp;nbsp; &amp;nbsp; &amp;nbsp; &amp;nbsp; &amp;nbsp; &amp;nbsp; &amp;nbsp; &amp;nbsp; &amp;nbsp; &amp;nbsp; &amp;nbsp;&amp;nbsp;&lt;/div&gt;&lt;div&gt;&lt;br&gt;&lt;/div&gt;&lt;div&gt;&amp;nbsp;registerUser(user: User): User&amp;nbsp; &amp;nbsp; &amp;nbsp; &amp;nbsp; &amp;nbsp; &amp;nbsp; &amp;nbsp; &amp;nbsp; &amp;nbsp; &amp;nbsp; &amp;nbsp; &amp;nbsp; &amp;nbsp; &amp;nbsp;&amp;nbsp;&lt;/div&gt;&lt;div&gt;&amp;nbsp;getUsers(): List&amp;lt;User&amp;gt;&amp;nbsp; &amp;nbsp; &amp;nbsp; &amp;nbsp; &amp;nbsp; &amp;nbsp; &amp;nbsp; &amp;nbsp; &amp;nbsp; &amp;nbsp; &amp;nbsp; &amp;nbsp; &amp;nbsp; &amp;nbsp; &amp;nbsp; &amp;nbsp; &amp;nbsp; &amp;nbsp;&amp;nbsp;&lt;/div&gt;&lt;div&gt;&amp;nbsp;deleteUser(email: String): void&amp;nbsp; &amp;nbsp; &amp;nbsp; &amp;nbsp; &amp;nbsp; &amp;nbsp; &amp;nbsp; &amp;nbsp; &amp;nbsp; &amp;nbsp; &amp;nbsp; &amp;nbsp; &amp;nbsp; &amp;nbsp;&lt;/div&gt;&lt;div&gt;&amp;nbsp;getUser(email: String): User&amp;nbsp; &amp;nbsp;&lt;/div&gt;" style="text;html=1;align=left;verticalAlign=middle;resizable=0;points=[];autosize=1;strokeColor=none;fillColor=none;" vertex="1" parent="nB1WcAFH_xLAjatS7PFR-3">
          <mxGeometry y="10" width="310" height="130" as="geometry" />
        </mxCell>
        <mxCell id="nB1WcAFH_xLAjatS7PFR-4" value="&lt;div style=&quot;&quot;&gt;&lt;span style=&quot;background-color: initial;&quot;&gt;RoomController&lt;/span&gt;&lt;/div&gt;" style="swimlane;whiteSpace=wrap;html=1;startSize=10;align=center;" parent="1" vertex="1">
          <mxGeometry x="390" y="-1020" width="715" height="200" as="geometry">
            <mxRectangle x="540" y="-290" width="120" height="30" as="alternateBounds" />
          </mxGeometry>
        </mxCell>
        <mxCell id="nB1WcAFH_xLAjatS7PFR-28" value="&lt;div&gt;roomService: IRoomService&lt;/div&gt;&lt;div&gt;bookingService: BookingService&lt;/div&gt;&lt;div&gt;addNewRoom(photo: MultipartFile, roomType: String, roomPrice: BigDecimal): ResponseEntity&amp;lt;RoomResponse&amp;gt;&lt;/div&gt;&lt;div&gt;getRoomTypes(): List&amp;lt;String&amp;gt;&lt;/div&gt;&lt;div&gt;getAllRooms(): ResponseEntity&amp;lt;List&amp;lt;RoomResponse&amp;gt;&amp;gt;&lt;/div&gt;&lt;div&gt;deleteRoom(roomId: Long): ResponseEntity&amp;lt;Void&amp;gt;&lt;/div&gt;&lt;div&gt;updateRoom(roomId: Long, roomType: String, roomPrice: BigDecimal, photo: MultipartFile): ResponseEntity&amp;lt;RoomResponse&amp;gt;&lt;/div&gt;&lt;div&gt;getRoomById(roomId: Long): ResponseEntity&amp;lt;RoomResponse&amp;gt;&lt;/div&gt;&lt;div&gt;getAvailableRooms(checkInDate: LocalDate, checkOutDate: LocalDate, roomType: String): ResponseEntity&amp;lt;List&amp;lt;RoomResponse&amp;gt;&amp;gt;&lt;/div&gt;&lt;div&gt;getRoomResponse(room: Room): RoomResponse&lt;/div&gt;&lt;div&gt;getAllBookingsByRoomId(roomId: Long): List&amp;lt;BookedRoom&amp;gt;&lt;/div&gt;" style="text;html=1;align=left;verticalAlign=middle;resizable=0;points=[];autosize=1;strokeColor=none;fillColor=none;" parent="nB1WcAFH_xLAjatS7PFR-4" vertex="1">
          <mxGeometry y="15" width="730" height="170" as="geometry" />
        </mxCell>
        <mxCell id="nB1WcAFH_xLAjatS7PFR-5" value=" AuthController " style="swimlane;whiteSpace=wrap;html=1;startSize=10;" parent="1" vertex="1">
          <mxGeometry x="-400" y="-1020" width="420" height="200" as="geometry" />
        </mxCell>
        <mxCell id="UZLP8aCEG_kcpRomXIV5-24" value="&lt;div&gt;userService: IUserService&lt;/div&gt;&lt;div&gt;authenticationManager: AuthenticationManager&lt;/div&gt;&lt;div&gt;jwtUtils: JwtUtils&lt;/div&gt;&lt;div&gt;registerUser(user: User): ResponseEntity&amp;lt;?&amp;gt;&lt;/div&gt;&lt;div&gt;authenticateUser(request: LoginRequest): ResponseEntity&amp;lt;?&amp;gt;&lt;/div&gt;" style="text;html=1;align=left;verticalAlign=middle;resizable=0;points=[];autosize=1;strokeColor=none;fillColor=none;" vertex="1" parent="nB1WcAFH_xLAjatS7PFR-5">
          <mxGeometry x="20" y="25" width="350" height="90" as="geometry" />
        </mxCell>
        <mxCell id="nB1WcAFH_xLAjatS7PFR-6" value=" RoleController " style="swimlane;whiteSpace=wrap;html=1;startSize=10;" parent="1" vertex="1">
          <mxGeometry x="50" y="-1020" width="290" height="200" as="geometry" />
        </mxCell>
        <mxCell id="nB1WcAFH_xLAjatS7PFR-27" value="&lt;div&gt;roleService: IRoleService&lt;/div&gt;&lt;div&gt;getAllRoles(): ResponseEntity&amp;lt;List&amp;lt;Role&amp;gt;&amp;gt;&lt;/div&gt;&lt;div&gt;createRole(theRole: Role): ResponseEntity&amp;lt;String&amp;gt;&lt;/div&gt;&lt;div&gt;deleteRole(roleId: Long): void&lt;/div&gt;&lt;div&gt;removeAllUsersFromRole(roleId: Long): Role&lt;/div&gt;&lt;div&gt;removeUserFromRole(userId: Long, roleId: Long): User&lt;/div&gt;&lt;div&gt;assignUserToRole(userId: Long, roleId: Long): User&lt;/div&gt;&lt;div&gt;&lt;br&gt;&lt;/div&gt;" style="text;html=1;align=left;verticalAlign=middle;resizable=0;points=[];autosize=1;strokeColor=none;fillColor=none;" parent="nB1WcAFH_xLAjatS7PFR-6" vertex="1">
          <mxGeometry y="20" width="320" height="130" as="geometry" />
        </mxCell>
        <mxCell id="nB1WcAFH_xLAjatS7PFR-7" value=" BookingController " style="swimlane;whiteSpace=wrap;html=1;startSize=10;" parent="1" vertex="1">
          <mxGeometry x="1200" y="-1010" width="470" height="200" as="geometry" />
        </mxCell>
        <mxCell id="nB1WcAFH_xLAjatS7PFR-26" value="&lt;div style=&quot;text-align: justify;&quot;&gt;&lt;span style=&quot;background-color: initial;&quot;&gt;Tex&lt;/span&gt;&lt;span style=&quot;background-color: initial;&quot;&gt;bookingService: IBookingService&lt;/span&gt;&lt;/div&gt;&lt;div style=&quot;text-align: justify;&quot;&gt;roomService: IRoomService&lt;/div&gt;&lt;div style=&quot;text-align: justify;&quot;&gt;getAllBookings(): ResponseEntity&amp;lt;List&amp;lt;BookingResponse&amp;gt;&amp;gt;&lt;/div&gt;&lt;div style=&quot;text-align: justify;&quot;&gt;saveBooking(roomId: Long, bookingRequest: BookedRoom): ResponseEntity&amp;lt;String&amp;gt;&lt;/div&gt;&lt;div style=&quot;text-align: justify;&quot;&gt;getBookingByConfirmationCode(confirmationCode: String): ResponseEntity&amp;lt;?&amp;gt;&lt;/div&gt;&lt;div style=&quot;text-align: justify;&quot;&gt;getBookingsByUserEmail(email: String): ResponseEntity&amp;lt;List&amp;lt;BookingResponse&amp;gt;&amp;gt;&lt;/div&gt;&lt;div style=&quot;text-align: justify;&quot;&gt;cancelBooking(bookingId: Long): ResponseEntity&amp;lt;String&amp;gt;&lt;/div&gt;&lt;span style=&quot;background-color: initial;&quot;&gt;&lt;div style=&quot;text-align: justify;&quot;&gt;&lt;span style=&quot;background-color: initial;&quot;&gt;getBookingResponse(booking: BookedRoom): BookingResponse&lt;/span&gt;&lt;span style=&quot;background-color: initial;&quot;&gt;t&lt;/span&gt;&lt;/div&gt;&lt;/span&gt;" style="text;html=1;align=center;verticalAlign=middle;resizable=0;points=[];autosize=1;strokeColor=none;fillColor=none;" parent="nB1WcAFH_xLAjatS7PFR-7" vertex="1">
          <mxGeometry x="-10" y="20" width="480" height="130" as="geometry" />
        </mxCell>
        <mxCell id="nB1WcAFH_xLAjatS7PFR-9" value=" IUserService " style="swimlane;whiteSpace=wrap;html=1;startSize=10;" parent="1" vertex="1">
          <mxGeometry x="-450" y="-703.5" width="440" height="267" as="geometry" />
        </mxCell>
        <mxCell id="UZLP8aCEG_kcpRomXIV5-10" value="Te&lt;span style=&quot;background-color: initial;&quot;&gt;registerUser(user: User): User&lt;/span&gt;&lt;div&gt;getUsers(): List&amp;lt;User&amp;gt;&lt;/div&gt;&lt;div&gt;deleteUser(email: String): void&lt;/div&gt;&lt;span style=&quot;background-color: initial;&quot;&gt;getUser(email: String): User&lt;/span&gt;xt" style="text;html=1;align=left;verticalAlign=middle;resizable=0;points=[];autosize=1;strokeColor=none;fillColor=none;" vertex="1" parent="nB1WcAFH_xLAjatS7PFR-9">
          <mxGeometry x="10" y="40" width="200" height="70" as="geometry" />
        </mxCell>
        <mxCell id="nB1WcAFH_xLAjatS7PFR-10" value=" Room " style="swimlane;whiteSpace=wrap;html=1;startSize=10;" parent="1" vertex="1">
          <mxGeometry x="65" y="-1530" width="297.5" height="300" as="geometry" />
        </mxCell>
        <mxCell id="nB1WcAFH_xLAjatS7PFR-32" value="&lt;div&gt;id: Long&lt;/div&gt;&lt;div&gt;roomType: String&lt;/div&gt;&lt;div&gt;roomPrice: BigDecimal&lt;/div&gt;&lt;div&gt;isBooked: boolean&lt;/div&gt;&lt;div&gt;photo: Blob&lt;/div&gt;&lt;div&gt;bookings: List&amp;lt;BookedRoom&amp;gt;&lt;/div&gt;&lt;div&gt;addBooking(booking: BookedRoom): void&lt;/div&gt;&lt;div&gt;getId(): Long&lt;/div&gt;&lt;div&gt;setId(id: Long): void&lt;/div&gt;&lt;div&gt;getRoomType(): String&lt;/div&gt;&lt;div&gt;setRoomType(roomType: String): void&lt;/div&gt;&lt;div&gt;getRoomPrice(): BigDecimal&lt;/div&gt;&lt;div&gt;setRoomPrice(roomPrice: BigDecimal): void&lt;/div&gt;&lt;div&gt;isBooked(): boolean&lt;/div&gt;&lt;div&gt;setBooked(isBooked: boolean): void&lt;/div&gt;&lt;div&gt;getPhoto(): Blob&lt;/div&gt;&lt;div&gt;setPhoto(photo: Blob): void&lt;/div&gt;&lt;div&gt;getBookings(): List&amp;lt;BookedRoom&amp;gt;&lt;/div&gt;&lt;div&gt;setBookings(bookings: List&amp;lt;BookedRoom&amp;gt;): void&lt;/div&gt;&lt;div&gt;&lt;br&gt;&lt;/div&gt;" style="text;html=1;align=left;verticalAlign=middle;resizable=0;points=[];autosize=1;strokeColor=none;fillColor=none;" parent="nB1WcAFH_xLAjatS7PFR-10" vertex="1">
          <mxGeometry x="7.5" y="10" width="290" height="300" as="geometry" />
        </mxCell>
        <mxCell id="nB1WcAFH_xLAjatS7PFR-13" value=" PasswordEncoder " style="swimlane;whiteSpace=wrap;html=1;startSize=10;" parent="1" vertex="1">
          <mxGeometry x="690" y="-20" width="200" height="200" as="geometry" />
        </mxCell>
        <mxCell id="UZLP8aCEG_kcpRomXIV5-15" value="encode(password: String): String&amp;nbsp;" style="text;html=1;align=center;verticalAlign=middle;resizable=0;points=[];autosize=1;strokeColor=none;fillColor=none;" vertex="1" parent="nB1WcAFH_xLAjatS7PFR-13">
          <mxGeometry y="20" width="200" height="30" as="geometry" />
        </mxCell>
        <mxCell id="nB1WcAFH_xLAjatS7PFR-14" value=" &amp;nbsp;RoleRepository " style="swimlane;whiteSpace=wrap;html=1;startSize=10;" parent="1" vertex="1">
          <mxGeometry x="-380" y="-20" width="255" height="200" as="geometry" />
        </mxCell>
        <mxCell id="UZLP8aCEG_kcpRomXIV5-16" value="&amp;nbsp;findByName(name: String): Optional&amp;lt;Role&amp;gt;&amp;nbsp;" style="text;html=1;align=center;verticalAlign=middle;resizable=0;points=[];autosize=1;strokeColor=none;fillColor=none;" vertex="1" parent="nB1WcAFH_xLAjatS7PFR-14">
          <mxGeometry x="-5" y="30" width="260" height="30" as="geometry" />
        </mxCell>
        <mxCell id="nB1WcAFH_xLAjatS7PFR-15" value=" User " style="swimlane;whiteSpace=wrap;html=1;startSize=10;" parent="1" vertex="1">
          <mxGeometry x="-610" y="-1550" width="230" height="330" as="geometry" />
        </mxCell>
        <mxCell id="UZLP8aCEG_kcpRomXIV5-2" value="&lt;div&gt;id: Long&lt;/div&gt;&lt;div&gt;firstName: String&lt;/div&gt;&lt;div&gt;lastName: String&lt;/div&gt;&lt;div&gt;email: String&lt;/div&gt;&lt;div&gt;password: String&lt;/div&gt;&lt;div&gt;roles: Collection&amp;lt;Role&amp;gt;&lt;/div&gt;&lt;div&gt;getId(): Long&lt;/div&gt;&lt;div&gt;setId(id: Long): void&lt;/div&gt;&lt;div&gt;getFirstName(): String&lt;/div&gt;&lt;div&gt;setFirstName(firstName: String): void&lt;/div&gt;&lt;div&gt;getLastName(): String&lt;/div&gt;&lt;div&gt;setLastName(lastName: String): void&lt;/div&gt;&lt;div&gt;getEmail(): String&lt;/div&gt;&lt;div&gt;setEmail(email: String): void&lt;/div&gt;&lt;div&gt;getPassword(): String&lt;/div&gt;&lt;div&gt;setPassword(password: String): void&lt;/div&gt;&lt;div&gt;getRoles(): Collection&amp;lt;Role&amp;gt;&lt;/div&gt;&lt;div&gt;setRoles(roles: Collection&amp;lt;Role&amp;gt;): void&lt;/div&gt;&lt;div&gt;equals(o: Object): boolean&lt;/div&gt;&lt;div&gt;hashCode(): int&lt;/div&gt;&lt;div&gt;toString(): String&lt;/div&gt;" style="text;html=1;align=left;verticalAlign=middle;resizable=0;points=[];autosize=1;strokeColor=none;fillColor=none;" vertex="1" parent="nB1WcAFH_xLAjatS7PFR-15">
          <mxGeometry x="10" y="20" width="230" height="320" as="geometry" />
        </mxCell>
        <mxCell id="nB1WcAFH_xLAjatS7PFR-16" value=" IRoleService " style="swimlane;whiteSpace=wrap;html=1;startSize=10;" parent="1" vertex="1">
          <mxGeometry x="340" y="-660" width="300" height="200" as="geometry" />
        </mxCell>
        <mxCell id="UZLP8aCEG_kcpRomXIV5-9" value="&lt;div&gt;getRoles(): List&amp;lt;Role&amp;gt;&lt;/div&gt;&lt;div&gt;createRole(theRole: Role): Role&lt;/div&gt;&lt;div&gt;deleteRole(id: Long): void&lt;/div&gt;&lt;div&gt;findByName(name: String): Role&lt;/div&gt;&lt;div&gt;removeUserFromRole(userId: Long, roleId: Long): User&lt;/div&gt;&lt;div&gt;assignRoleToUser(userId: Long, roleId: Long): User&lt;/div&gt;&lt;div&gt;removeAllUsersFromRole(roleId: Long): Role&lt;/div&gt;" style="text;html=1;align=left;verticalAlign=middle;resizable=0;points=[];autosize=1;strokeColor=none;fillColor=none;" vertex="1" parent="nB1WcAFH_xLAjatS7PFR-16">
          <mxGeometry y="37" width="320" height="110" as="geometry" />
        </mxCell>
        <mxCell id="nB1WcAFH_xLAjatS7PFR-18" value=" IRoomService " style="swimlane;whiteSpace=wrap;html=1;startSize=10;" parent="1" vertex="1">
          <mxGeometry x="1290" y="-670" width="570" height="200" as="geometry" />
        </mxCell>
        <mxCell id="UZLP8aCEG_kcpRomXIV5-5" value="&lt;div&gt;addNewRoom(photo: MultipartFile, roomType: String, roomPrice: BigDecimal): Room&lt;/div&gt;&lt;div&gt;getAllRoomTypes(): List&amp;lt;String&amp;gt;&lt;/div&gt;&lt;div&gt;getAllRooms(): List&amp;lt;Room&amp;gt;&lt;/div&gt;&lt;div&gt;getRoomPhotoByRoomId(roomId: Long): byte[]&lt;/div&gt;&lt;div&gt;deleteRoom(roomId: Long): void&lt;/div&gt;&lt;div&gt;updateRoom(roomId: Long, roomType: String, roomPrice: BigDecimal, photoBytes: byte[]): Room&lt;/div&gt;&lt;div&gt;getRoomById(roomId: Long): Optional&amp;lt;Room&amp;gt;&lt;/div&gt;&lt;div&gt;getAvailableRooms(checkInDate: LocalDate, checkOutDate: LocalDate, roomType: String): List&amp;lt;Room&amp;gt;&lt;/div&gt;" style="text;html=1;align=left;verticalAlign=middle;resizable=0;points=[];autosize=1;strokeColor=none;fillColor=none;" vertex="1" parent="nB1WcAFH_xLAjatS7PFR-18">
          <mxGeometry y="35" width="570" height="130" as="geometry" />
        </mxCell>
        <mxCell id="nB1WcAFH_xLAjatS7PFR-19" value="Role" style="swimlane;whiteSpace=wrap;html=1;startSize=10;" parent="1" vertex="1">
          <mxGeometry x="-300" y="-1500" width="230" height="200" as="geometry" />
        </mxCell>
        <mxCell id="UZLP8aCEG_kcpRomXIV5-1" value="&lt;div&gt;id: Long&lt;/div&gt;&lt;div&gt;name: String&lt;/div&gt;&lt;div&gt;users: Collection&amp;lt;User&amp;gt;&lt;/div&gt;&lt;div&gt;Role(name: String)&lt;/div&gt;&lt;div&gt;getUsers(): Collection&amp;lt;User&amp;gt;&lt;/div&gt;&lt;div&gt;assignRoleToUser(user: User): void&lt;/div&gt;&lt;div&gt;removeUserFromRole(user: User): void&lt;/div&gt;&lt;div&gt;removeAllUsersFromRole(): void&lt;/div&gt;&lt;div&gt;getName(): String&lt;/div&gt;&lt;div&gt;equals(o: Object): boolean&lt;/div&gt;&lt;div&gt;hashCode(): int&lt;/div&gt;&lt;div&gt;toString(): String&lt;/div&gt;" style="text;html=1;align=left;verticalAlign=middle;resizable=0;points=[];autosize=1;strokeColor=none;fillColor=none;" vertex="1" parent="nB1WcAFH_xLAjatS7PFR-19">
          <mxGeometry x="10" y="10" width="230" height="190" as="geometry" />
        </mxCell>
        <mxCell id="nB1WcAFH_xLAjatS7PFR-20" value=" BookingService " style="swimlane;whiteSpace=wrap;html=1;startSize=10;" parent="1" vertex="1">
          <mxGeometry x="-770" y="-380" width="520" height="200" as="geometry" />
        </mxCell>
        <mxCell id="UZLP8aCEG_kcpRomXIV5-3" value="&lt;div&gt;bookingRepository: BookingRepository&lt;/div&gt;&lt;div&gt;roomService: IRoomService&lt;/div&gt;&lt;div&gt;getAllBookings(): List&amp;lt;BookedRoom&amp;gt;&lt;/div&gt;&lt;div&gt;getBookingsByUserEmail(email: String): List&amp;lt;BookedRoom&amp;gt;&lt;/div&gt;&lt;div&gt;cancelBooking(bookingId: Long): void&lt;/div&gt;&lt;div&gt;getAllBookingsByRoomId(roomId: Long): List&amp;lt;BookedRoom&amp;gt;&lt;/div&gt;&lt;div&gt;saveBooking(roomId: Long, bookingRequest: BookedRoom): String&lt;/div&gt;&lt;div&gt;findByBookingConfirmationCode(confirmationCode: String): BookedRoom&lt;/div&gt;&lt;div&gt;roomIsAvailable(bookingRequest: BookedRoom, existingBookings: List&amp;lt;BookedRoom&amp;gt;): boolean&lt;/div&gt;" style="text;html=1;align=left;verticalAlign=middle;resizable=0;points=[];autosize=1;strokeColor=none;fillColor=none;" vertex="1" parent="nB1WcAFH_xLAjatS7PFR-20">
          <mxGeometry y="30" width="540" height="140" as="geometry" />
        </mxCell>
        <mxCell id="nB1WcAFH_xLAjatS7PFR-11" value=" UserController " style="swimlane;whiteSpace=wrap;html=1;startSize=10;" parent="1" vertex="1">
          <mxGeometry x="-700" y="-1020" width="275" height="200" as="geometry" />
        </mxCell>
        <mxCell id="nB1WcAFH_xLAjatS7PFR-30" value="&lt;div&gt;userService: IUserService&lt;/div&gt;&lt;div&gt;getUsers(): ResponseEntity&amp;lt;List&amp;lt;User&amp;gt;&amp;gt;&lt;/div&gt;&lt;div&gt;getUserByEmail(email: String): ResponseEntity&amp;lt;?&amp;gt;&lt;/div&gt;&lt;div&gt;deleteUser(email: String): ResponseEntity&amp;lt;String&amp;gt;&lt;/div&gt;&lt;div&gt;&lt;br&gt;&lt;/div&gt;&lt;div&gt;&lt;br&gt;&lt;/div&gt;&lt;div&gt;&lt;br&gt;&lt;/div&gt;&lt;div&gt;&lt;br&gt;&lt;/div&gt;&lt;div&gt;&lt;br&gt;&lt;/div&gt;" style="text;html=1;align=left;verticalAlign=middle;resizable=0;points=[];autosize=1;strokeColor=none;fillColor=none;" parent="nB1WcAFH_xLAjatS7PFR-11" vertex="1">
          <mxGeometry y="30" width="300" height="140" as="geometry" />
        </mxCell>
        <mxCell id="nB1WcAFH_xLAjatS7PFR-35" value=" &amp;nbsp;UserRepository&amp;nbsp; " style="swimlane;whiteSpace=wrap;html=1;startSize=10;" parent="1" vertex="1">
          <mxGeometry x="-670" y="-10" width="230" height="200" as="geometry" />
        </mxCell>
        <mxCell id="UZLP8aCEG_kcpRomXIV5-14" value="&lt;div&gt;&amp;nbsp;existsByEmail(email: String): boolean&amp;nbsp; &amp;nbsp; &amp;nbsp; &amp;nbsp; &amp;nbsp; &amp;nbsp; &amp;nbsp; &amp;nbsp; &amp;nbsp; &amp;nbsp; &amp;nbsp;&lt;/div&gt;&lt;div&gt;&amp;nbsp;save(user: User): User&amp;nbsp; &amp;nbsp; &amp;nbsp; &amp;nbsp; &amp;nbsp; &amp;nbsp; &amp;nbsp; &amp;nbsp; &amp;nbsp; &amp;nbsp; &amp;nbsp; &amp;nbsp; &amp;nbsp; &amp;nbsp; &amp;nbsp; &amp;nbsp; &amp;nbsp; &amp;nbsp;&amp;nbsp;&lt;/div&gt;&lt;div&gt;&amp;nbsp;findAll(): List&amp;lt;User&amp;gt;&amp;nbsp; &amp;nbsp; &amp;nbsp; &amp;nbsp; &amp;nbsp; &amp;nbsp; &amp;nbsp; &amp;nbsp; &amp;nbsp; &amp;nbsp; &amp;nbsp; &amp;nbsp; &amp;nbsp; &amp;nbsp; &amp;nbsp; &amp;nbsp; &amp;nbsp; &amp;nbsp; &amp;nbsp;&lt;/div&gt;&lt;div&gt;&amp;nbsp;deleteByEmail(email: String): void&amp;nbsp; &amp;nbsp; &amp;nbsp; &amp;nbsp; &amp;nbsp; &amp;nbsp; &amp;nbsp; &amp;nbsp; &amp;nbsp; &amp;nbsp; &amp;nbsp; &amp;nbsp;&amp;nbsp;&lt;/div&gt;&lt;div&gt;&amp;nbsp;findByEmail(email: String): Optional&amp;lt;User&amp;gt;&lt;/div&gt;" style="text;html=1;align=left;verticalAlign=middle;resizable=0;points=[];autosize=1;strokeColor=none;fillColor=none;" vertex="1" parent="nB1WcAFH_xLAjatS7PFR-35">
          <mxGeometry y="20" width="300" height="90" as="geometry" />
        </mxCell>
        <mxCell id="nB1WcAFH_xLAjatS7PFR-36" value=" IBookingService " style="swimlane;whiteSpace=wrap;html=1;startSize=10;" parent="1" vertex="1">
          <mxGeometry x="-130" y="-380" width="420" height="200" as="geometry" />
        </mxCell>
        <mxCell id="UZLP8aCEG_kcpRomXIV5-6" value="&lt;div&gt;cancelBooking(bookingId: Long): void&lt;/div&gt;&lt;div&gt;getAllBookingsByRoomId(roomId: Long): List&amp;lt;BookedRoom&amp;gt;&lt;/div&gt;&lt;div&gt;saveBooking(roomId: Long, bookingRequest: BookedRoom): String&lt;/div&gt;&lt;div&gt;findByBookingConfirmationCode(confirmationCode: String): BookedRoom&lt;/div&gt;&lt;div&gt;getAllBookings(): List&amp;lt;BookedRoom&amp;gt;&lt;/div&gt;&lt;div&gt;getBookingsByUserEmail(email: String): List&amp;lt;BookedRoom&amp;gt;&lt;/div&gt;" style="text;html=1;align=left;verticalAlign=middle;resizable=0;points=[];autosize=1;strokeColor=none;fillColor=none;" vertex="1" parent="nB1WcAFH_xLAjatS7PFR-36">
          <mxGeometry y="40" width="420" height="100" as="geometry" />
        </mxCell>
        <mxCell id="UZLP8aCEG_kcpRomXIV5-17" value=" &amp;nbsp;RoomService&amp;nbsp; " style="swimlane;whiteSpace=wrap;html=1;startSize=10;" vertex="1" parent="1">
          <mxGeometry x="680" y="-670" width="580" height="200" as="geometry" />
        </mxCell>
        <mxCell id="UZLP8aCEG_kcpRomXIV5-21" value="&lt;div&gt;roomRepository: RoomRepository&amp;nbsp; &amp;nbsp; &amp;nbsp; &amp;nbsp; &amp;nbsp; &amp;nbsp; &amp;nbsp; &amp;nbsp; &amp;nbsp; &amp;nbsp; &amp;nbsp; &amp;nbsp; &amp;nbsp; &amp;nbsp;&amp;nbsp;&lt;/div&gt;&lt;div&gt;&lt;br&gt;&lt;/div&gt;&lt;div&gt;addNewRoom(file: MultipartFile, roomType: String, roomPrice: BigDecimal): Room&amp;nbsp;&lt;/div&gt;&lt;div&gt;&amp;nbsp;getAllRoomTypes(): List&amp;lt;String&amp;gt;&amp;nbsp; &amp;nbsp; &amp;nbsp; &amp;nbsp; &amp;nbsp; &amp;nbsp; &amp;nbsp; &amp;nbsp; &amp;nbsp; &amp;nbsp; &amp;nbsp; &amp;nbsp; &amp;nbsp; &amp;nbsp;&lt;/div&gt;&lt;div&gt;&amp;nbsp;getAllRooms(): List&amp;lt;Room&amp;gt;&amp;nbsp; &amp;nbsp; &amp;nbsp; &amp;nbsp; &amp;nbsp; &amp;nbsp; &amp;nbsp; &amp;nbsp; &amp;nbsp; &amp;nbsp; &amp;nbsp; &amp;nbsp; &amp;nbsp; &amp;nbsp; &amp;nbsp; &amp;nbsp; &amp;nbsp;&lt;/div&gt;&lt;div&gt;&amp;nbsp;getRoomPhotoByRoomId(roomId: Long): byte[]&amp;nbsp; &amp;nbsp; &amp;nbsp; &amp;nbsp; &amp;nbsp; &amp;nbsp; &amp;nbsp; &amp;nbsp;&amp;nbsp;&lt;/div&gt;&lt;div&gt;&amp;nbsp;deleteRoom(roomId: Long): void&amp;nbsp; &amp;nbsp; &amp;nbsp; &amp;nbsp; &amp;nbsp; &amp;nbsp; &amp;nbsp; &amp;nbsp; &amp;nbsp; &amp;nbsp; &amp;nbsp; &amp;nbsp; &amp;nbsp; &amp;nbsp;&amp;nbsp;&lt;/div&gt;&lt;div&gt;&amp;nbsp;updateRoom(roomId: Long, roomType: String, roomPrice: BigDecimal, photoBytes: byte[]): Room&amp;nbsp;&lt;/div&gt;&lt;div&gt;&amp;nbsp;getRoomById(roomId: Long): Optional&amp;lt;Room&amp;gt;&amp;nbsp; &amp;nbsp; &amp;nbsp; &amp;nbsp; &amp;nbsp; &amp;nbsp; &amp;nbsp; &amp;nbsp; &amp;nbsp;&lt;/div&gt;&lt;div&gt;&amp;nbsp;getAvailableRooms(checkInDate: LocalDate, checkOutDate: LocalDate, roomType: String): List&amp;lt;Room&amp;gt;&amp;nbsp;&lt;/div&gt;&lt;div&gt;&lt;br&gt;&lt;/div&gt;" style="text;html=1;align=left;verticalAlign=middle;resizable=0;points=[];autosize=1;strokeColor=none;fillColor=none;" vertex="1" parent="UZLP8aCEG_kcpRomXIV5-17">
          <mxGeometry y="20" width="580" height="170" as="geometry" />
        </mxCell>
        <mxCell id="nB1WcAFH_xLAjatS7PFR-8" value=" &amp;nbsp; RoomRepository&amp;nbsp; &amp;nbsp;&amp;nbsp; " style="swimlane;whiteSpace=wrap;html=1;startSize=10;" parent="1" vertex="1">
          <mxGeometry x="-90" y="-20" width="680" height="200" as="geometry" />
        </mxCell>
        <mxCell id="UZLP8aCEG_kcpRomXIV5-22" value="&lt;div&gt;findDistinctRoomTypes(): List&amp;lt;String&amp;gt;&amp;nbsp; &amp;nbsp; &amp;nbsp; &amp;nbsp; &amp;nbsp; &amp;nbsp; &amp;nbsp; &amp;nbsp; &amp;nbsp; &amp;nbsp; &amp;nbsp;&lt;/div&gt;&lt;div&gt;&amp;nbsp;findAll(): List&amp;lt;Room&amp;gt;&amp;nbsp; &amp;nbsp; &amp;nbsp; &amp;nbsp; &amp;nbsp; &amp;nbsp; &amp;nbsp; &amp;nbsp; &amp;nbsp; &amp;nbsp; &amp;nbsp; &amp;nbsp; &amp;nbsp; &amp;nbsp; &amp;nbsp; &amp;nbsp; &amp;nbsp; &amp;nbsp; &amp;nbsp;&lt;/div&gt;&lt;div&gt;&amp;nbsp;findById(roomId: Long): Optional&amp;lt;Room&amp;gt;&amp;nbsp; &amp;nbsp; &amp;nbsp; &amp;nbsp; &amp;nbsp; &amp;nbsp; &amp;nbsp; &amp;nbsp; &amp;nbsp; &amp;nbsp;&amp;nbsp;&lt;/div&gt;&lt;div&gt;&amp;nbsp;save(room: Room): Room&amp;nbsp; &amp;nbsp; &amp;nbsp; &amp;nbsp; &amp;nbsp; &amp;nbsp; &amp;nbsp; &amp;nbsp; &amp;nbsp; &amp;nbsp; &amp;nbsp; &amp;nbsp; &amp;nbsp; &amp;nbsp; &amp;nbsp; &amp;nbsp; &amp;nbsp; &amp;nbsp;&amp;nbsp;&lt;/div&gt;&lt;div&gt;&amp;nbsp;deleteById(roomId: Long): void&amp;nbsp; &amp;nbsp; &amp;nbsp; &amp;nbsp; &amp;nbsp; &amp;nbsp; &amp;nbsp; &amp;nbsp; &amp;nbsp; &amp;nbsp; &amp;nbsp; &amp;nbsp; &amp;nbsp; &amp;nbsp;&amp;nbsp;&lt;/div&gt;&lt;div&gt;&amp;nbsp;findAvailableRoomsByDatesAndType(checkInDate: LocalDate, checkOutDate: LocalDate, roomType: String): List&amp;lt;Room&amp;gt;&amp;nbsp;&lt;/div&gt;" style="text;html=1;align=left;verticalAlign=middle;resizable=0;points=[];autosize=1;strokeColor=none;fillColor=none;" vertex="1" parent="nB1WcAFH_xLAjatS7PFR-8">
          <mxGeometry x="10" y="30" width="680" height="100" as="geometry" />
        </mxCell>
        <mxCell id="UZLP8aCEG_kcpRomXIV5-32" value="Booking repository" style="swimlane;whiteSpace=wrap;html=1;startSize=10;" vertex="1" parent="1">
          <mxGeometry x="930" y="-20" width="400" height="200" as="geometry" />
        </mxCell>
        <mxCell id="UZLP8aCEG_kcpRomXIV5-33" value="&lt;div&gt;&amp;nbsp;findById(Long id): Optional&amp;lt;BookedRoom&amp;gt;&amp;nbsp; &amp;nbsp; &amp;nbsp; &amp;nbsp; &amp;nbsp;&lt;/div&gt;&lt;div&gt;findByRoomId(Long roomId): List&amp;lt;BookedRoom&amp;gt;&amp;nbsp;&amp;nbsp;&lt;/div&gt;&lt;div&gt;findByBookingConfirmationCode(String code): Optional&amp;lt;BookedRoom&amp;gt; |&lt;/div&gt;&lt;div&gt;findByGuestEmail(String email): List&amp;lt;BookedRoom&amp;gt;&lt;/div&gt;&lt;div&gt;save(BookedRoom bookedRoom): BookedRoom&amp;nbsp; &amp;nbsp; &amp;nbsp; &amp;nbsp; &amp;nbsp;&lt;/div&gt;&lt;div&gt;deleteById(Long id): void&amp;nbsp;&lt;/div&gt;" style="text;html=1;align=left;verticalAlign=middle;resizable=0;points=[];autosize=1;strokeColor=none;fillColor=none;" vertex="1" parent="UZLP8aCEG_kcpRomXIV5-32">
          <mxGeometry y="30" width="410" height="100" as="geometry" />
        </mxCell>
        <mxCell id="UZLP8aCEG_kcpRomXIV5-35" value="RoleService " style="swimlane;whiteSpace=wrap;html=1;startSize=10;" vertex="1" parent="1">
          <mxGeometry y="-660" width="320" height="200" as="geometry" />
        </mxCell>
        <mxCell id="UZLP8aCEG_kcpRomXIV5-36" value="&lt;div&gt;roleRepository: RoleRepository&amp;nbsp; &amp;nbsp; &amp;nbsp; &amp;nbsp; &amp;nbsp; &amp;nbsp; &amp;nbsp; &amp;nbsp; &amp;nbsp;&lt;/div&gt;&lt;div&gt;&amp;nbsp;userRepository: UserRepository&amp;nbsp; &amp;nbsp; &amp;nbsp; &amp;nbsp; &amp;nbsp; &amp;nbsp; &amp;nbsp; &amp;nbsp; &amp;nbsp;&lt;/div&gt;&lt;div&gt;&lt;br&gt;&lt;/div&gt;&lt;div&gt;&amp;nbsp;getRoles(): List&amp;lt;Role&amp;gt;&amp;nbsp; &amp;nbsp; &amp;nbsp; &amp;nbsp; &amp;nbsp; &amp;nbsp; &amp;nbsp; &amp;nbsp; &amp;nbsp; &amp;nbsp; &amp;nbsp; &amp;nbsp; &amp;nbsp;&lt;/div&gt;&lt;div&gt;&amp;nbsp;createRole(theRole: Role): Role&amp;nbsp; &amp;nbsp; &amp;nbsp; &amp;nbsp; &amp;nbsp; &amp;nbsp; &amp;nbsp; &amp;nbsp;&amp;nbsp;&lt;/div&gt;&lt;div&gt;&amp;nbsp;deleteRole(roleId: Long): void&amp;nbsp; &amp;nbsp; &amp;nbsp; &amp;nbsp; &amp;nbsp; &amp;nbsp; &amp;nbsp; &amp;nbsp; &amp;nbsp;&lt;/div&gt;&lt;div&gt;&amp;nbsp;findByName(name: String): Role&amp;nbsp; &amp;nbsp; &amp;nbsp; &amp;nbsp; &amp;nbsp; &amp;nbsp; &amp;nbsp; &amp;nbsp; &amp;nbsp;&lt;/div&gt;&lt;div&gt;&amp;nbsp;removeUserFromRole(userId: Long, roleId: Long): User&amp;nbsp;&lt;/div&gt;&lt;div&gt;&amp;nbsp;assignRoleToUser(userId: Long, roleId: Long): User&amp;nbsp;&lt;/div&gt;&lt;div&gt;&amp;nbsp;removeAllUsersFromRole(roleId: Long): Role&amp;nbsp;&lt;/div&gt;" style="text;html=1;align=left;verticalAlign=middle;resizable=0;points=[];autosize=1;strokeColor=none;fillColor=none;" vertex="1" parent="UZLP8aCEG_kcpRomXIV5-35">
          <mxGeometry x="10" y="20" width="320" height="160" as="geometry" />
        </mxCell>
      </root>
    </mxGraphModel>
  </diagram>
</mxfile>
